<?xml version="1.0" encoding="utf-8"?>
<!-- Generator: Adobe Illustrator 16.0.0, SVG Export Plug-In . SVG Version: 6.00 Build 0)  -->
<!DOCTYPE svg PUBLIC "-//W3C//DTD SVG 1.1//EN" "http://www.w3.org/Graphics/SVG/1.1/DTD/svg11.dtd">
<svg version="1.1" id="Layer_1" xmlns="http://www.w3.org/2000/svg" xmlns:xlink="http://www.w3.org/1999/xlink" x="0px" y="0px"
	 width="612px" height="792px" viewBox="0 0 612 792" enable-background="new 0 0 612 792" xml:space="preserve">
<path fill="#F0525C" d="M100.376,375.242l119.181,117.371c10.557,10.408,28.982,10.424,39.556,0
	c5.287-5.209,8.195-12.123,8.195-19.492c0-7.354-2.908-14.273-8.195-19.482l-72.068-70.996h305.44
	c15.439,0,27.986-12.353,27.986-27.552c0-15.191-12.547-27.552-27.986-27.552h-305.44l72.068-70.98
	c5.287-5.208,8.195-12.127,8.195-19.49c0-7.362-2.908-14.289-8.195-19.49c-10.557-10.402-28.999-10.41-39.556,0L99.739,335.617
	c-1.322,1.298-2.473,2.697-3.483,4.198l-1.835,3.382c-0.279,0.466-0.56,0.917-0.762,1.399c-0.202,0.467-0.327,1.05-0.497,1.625
	l-0.824,2.698c-0.622,2.612-0.809,4.432-0.809,6.181c0,1.812,0.202,3.615,0.56,5.403l1.073,3.506
	c0.155,0.552,0.279,1.104,0.497,1.617c0.233,0.521,0.514,0.972,0.778,1.438l1.368,2.519c1.415,2.263,2.535,3.577,3.732,4.797
	L100.376,375.242z"/>
</svg>
