<?xml version="1.0" standalone="yes"?>

<svg version="1.1" viewBox="0.0 0.0 192.0 192.0" fill="none" stroke="none" stroke-linecap="square" stroke-miterlimit="10" xmlns="http://www.w3.org/2000/svg" xmlns:xlink="http://www.w3.org/1999/xlink"><clipPath id="p.0"><path d="m0 0l192.0 0l0 192.0l-192.0 0l0 -192.0z" clip-rule="nonzero"></path></clipPath><g clip-path="url(#p.0)"><path fill="#000000" fill-opacity="0.0" d="m0 0l192.0 0l0 192.0l-192.0 0z" fill-rule="nonzero"></path><path fill="#000000" fill-opacity="0.0" d="m16.897638 96.0l0 0c0 -44.435005 35.415337 -80.456696 79.10236 -80.456696l0 0c20.979248 0 41.099243 8.476663 55.933823 23.56522c14.834564 15.088554 23.168533 35.553032 23.168533 56.89147l0 0c0 44.434998 -35.41533 80.456696 -79.102356 80.456696l0 0c-43.687027 0 -79.10236 -36.021698 -79.10236 -80.456696z" fill-rule="nonzero"></path><path stroke="#ef515c" stroke-width="24.0" stroke-linejoin="round" stroke-linecap="butt" d="m16.897638 96.0l0 0c0 -44.435005 35.415337 -80.456696 79.10236 -80.456696l0 0c20.979248 0 41.099243 8.476663 55.933823 23.56522c14.834564 15.088554 23.168533 35.553032 23.168533 56.89147l0 0c0 44.434998 -35.41533 80.456696 -79.102356 80.456696l0 0c-43.687027 0 -79.10236 -36.021698 -79.10236 -80.456696z" fill-rule="nonzero"></path><path fill="#ef515c" d="m47.149605 80.8189l97.70078 0l0 30.362198l-97.70078 0z" fill-rule="nonzero"></path></g></svg>

