<?xml version="1.0" encoding="utf-8"?>
<!-- Generator: Adobe Illustrator 16.0.0, SVG Export Plug-In . SVG Version: 6.00 Build 0)  -->
<!DOCTYPE svg PUBLIC "-//W3C//DTD SVG 1.1//EN" "http://www.w3.org/Graphics/SVG/1.1/DTD/svg11.dtd">
<svg version="1.1" id="Layer_1" xmlns="http://www.w3.org/2000/svg" xmlns:xlink="http://www.w3.org/1999/xlink" x="0px" y="0px"
	 width="200px" height="200px" viewBox="0 0 200 200" enable-background="new 0 0 200 200" xml:space="preserve">
<g>
	<g>
		<defs>
			<rect id="SVGID_1_" x="-20.373" y="-57" width="232.054" height="257"/>
		</defs>
		<clipPath id="SVGID_2_">
			<use xlink:href="#SVGID_1_"  overflow="visible"/>
		</clipPath>
	</g>
	<g>
		<defs>
			<path id="SVGID_3_" d="M26.774,24.859c0,0-7.311,1.718-11.492,2.661c-4.18,0.945-1.442,5.22-1.442,5.22l10.309,11.531
				c4.418,9.845-3.843,2.254-3.843,2.254L8.227,37.919c-8.667-1.711-3.532,5.853-3.532,5.853s9.724,16.181,29.629,32.991
				c2.788,2.354-1.274,26.08,1.911,28.415c12.847,9.417,23.172-10.331,12.205-17.734c-1.44-0.967,2.912,1.936,4.423,2.885
				c9.777,6.135,21.069,11.746,33.903,15.946c15.062,4.93,14.471,17.265,22.265,23.922c11.321,9.669,24.845,8.767,14.402-1.903
				c-2.019-2.056,5.247,4.213,6.776,6.243c1.144,1.525,2.158,3.035,3.063,4.517c0.433,0.712,0.84,1.413,1.223,2.108
				c6.352,11.558,5.919,20.83,5.919,20.83s-16.572,24.042-21.165,31.52c-4.59,7.477,3.418,5.925,3.418,5.925l29.654-12.497
				c0,0,21.808,8.693,30.109,12.036c8.305,3.343,5.073-2.572,5.073-2.572l-22.074-34.191c0.843-8.009,1.103-15.381,0.927-22.137
				c-0.036-1.44,8.117,1.377,7.677-3.269c-0.287-3.017-8.282-7.44-8.84-11.586c-4.277-31.96-18.392-45.869-18.392-45.869
				l-11.503-39.55l-7.945,0.225l-9.838,0.393l-16.461,1.767l16.476,10.756C84.476,28.36,53.563,24.376,37.76,24.237
				C30.805,24.175,26.774,24.859,26.774,24.859"/>
		</defs>
		<use xlink:href="#SVGID_3_"  overflow="visible" fill="#F0525C"/>
		<clipPath id="SVGID_4_">
			<use xlink:href="#SVGID_3_"  overflow="visible"/>
		</clipPath>
		<path clip-path="url(#SVGID_4_)" fill="#D9F0FA" d="M37.022,44.242c5.332,0,5.332-7.24,0-7.24S31.69,44.242,37.022,44.242z"/>
		<polygon clip-path="url(#SVGID_4_)" fill="#F4EFEF" points="-263.704,451.98 -70.291,628.105 116.809,446.28 -76.606,270.152 		
			"/>
		<path clip-path="url(#SVGID_4_)" fill="#D9F0FA" d="M85.248,54.139c-2.76-3.671-4.378-7.569-0.78-11.204
			c2.351-2.375,5.868-4.259,9.428-5.129c-3.461-1.04-6.647-2.569-9.18-4.83c-4.072,2.132-7.556,5.166-9.447,8.884
			c-4.736,9.311,4.12,18.022,9.991,24.61c3.019,3.387,5.74,7.398,7.345,11.56c2.045,5.299-0.208,8.765-5.007,11.658
			c-8.063,4.855-18.408,5.334-27.889,4.65c-0.432,2.693,1.669,4.654,4.641,6.813c0.439,0.318,0.801,0.678,1.104,1.063
			c21.403-0.201,39.973-8.489,35.48-25.177C98.472,67.903,90.809,61.53,85.248,54.139z"/>
	</g>
	<line fill="#9E4343" x1="104.365" y1="112.116" x2="104.365" y2="112.116"/>
	<g>
		<defs>
			<path id="SVGID_5_" d="M26.774,24.859c0,0-7.311,1.718-11.492,2.661c-4.18,0.945-1.442,5.22-1.442,5.22l10.309,11.531
				c4.418,9.845-3.843,2.254-3.843,2.254L8.227,37.919c-8.667-1.711-3.532,5.853-3.532,5.853s9.724,16.181,29.629,32.991
				c2.788,2.354-1.274,26.08,1.911,28.415c12.847,9.417,23.172-10.331,12.205-17.734c-1.44-0.967,2.912,1.936,4.423,2.885
				c9.777,6.135,21.069,11.746,33.903,15.946c15.062,4.93,14.471,17.265,22.265,23.922c11.321,9.669,24.845,8.767,14.402-1.903
				c-2.019-2.056,5.247,4.213,6.776,6.243c1.144,1.525,2.158,3.035,3.063,4.517c0.433,0.712,0.84,1.413,1.223,2.108
				c6.352,11.558,5.919,20.83,5.919,20.83s-16.572,24.042-21.165,31.52c-4.59,7.477,3.418,5.925,3.418,5.925l29.654-12.497
				c0,0,21.808,8.693,30.109,12.036c8.305,3.343,5.073-2.572,5.073-2.572l-22.074-34.191c0.843-8.009,1.103-15.381,0.927-22.137
				c-0.036-1.44,8.117,1.377,7.677-3.269c-0.287-3.017-8.282-7.44-8.84-11.586c-4.277-31.96-18.392-45.869-18.392-45.869
				l-11.503-39.55l-7.945,0.225l-9.838,0.393l-16.461,1.767l16.476,10.756C84.476,28.36,53.563,24.376,37.76,24.237
				C30.805,24.175,26.774,24.859,26.774,24.859"/>
		</defs>
		<use xlink:href="#SVGID_5_"  overflow="visible" fill="#F0525C"/>
		<clipPath id="SVGID_6_">
			<use xlink:href="#SVGID_5_"  overflow="visible"/>
		</clipPath>
		<path clip-path="url(#SVGID_6_)" fill="#D9F0FA" d="M37.022,44.242c5.332,0,5.332-7.24,0-7.24S31.69,44.242,37.022,44.242z"/>
		<polygon clip-path="url(#SVGID_6_)" fill="#F4EFEF" points="-263.704,451.98 -70.291,628.105 116.809,446.28 -76.606,270.152 		
			"/>
		<path clip-path="url(#SVGID_6_)" fill="#D9F0FA" d="M85.248,54.139c-2.76-3.671-4.378-7.569-0.78-11.204
			c2.351-2.375,5.868-4.259,9.428-5.129c-3.461-1.04-6.647-2.569-9.18-4.83c-4.072,2.132-7.556,5.166-9.447,8.884
			c-4.736,9.311,4.12,18.022,9.991,24.61c3.019,3.387,5.74,7.398,7.345,11.56c2.045,5.299-0.208,8.765-5.007,11.658
			c-8.063,4.855-18.408,5.334-27.889,4.65c-0.432,2.693,1.669,4.654,4.641,6.813c0.439,0.318,0.801,0.678,1.104,1.063
			c21.403-0.201,39.973-8.489,35.48-25.177C98.472,67.903,90.809,61.53,85.248,54.139z"/>
	</g>
	<line fill="#9E4343" x1="104.365" y1="112.116" x2="104.365" y2="112.116"/>
</g>
</svg>
